<mxfile host="www.draw.io" modified="2019-12-26T02:09:56.280Z" agent="Mozilla/5.0 (Macintosh; Intel Mac OS X 10_14_6) AppleWebKit/537.36 (KHTML, like Gecko) Chrome/79.0.3945.88 Safari/537.36" etag="2r0PV1uKnfoWtpWQBrFH" version="12.4.3" type="github" pages="1">
  <diagram id="ZQ9hvVZvNBJYVmyXXAFO" name="Page-1">
    <mxGraphModel dx="1722" dy="874" grid="1" gridSize="1" guides="1" tooltips="1" connect="1" arrows="1" fold="1" page="1" pageScale="1" pageWidth="827" pageHeight="1169" math="0" shadow="0">
      <root>
        <mxCell id="0"/>
        <mxCell id="1" parent="0"/>
        <mxCell id="WEjBrDBe1VnxncM8H6Ck-12" value="" style="group" parent="1" vertex="1" connectable="0">
          <mxGeometry x="258" y="7" width="70" height="80" as="geometry"/>
        </mxCell>
        <mxCell id="WEjBrDBe1VnxncM8H6Ck-3" value="" style="aspect=fixed;perimeter=ellipsePerimeter;html=1;align=center;shadow=0;dashed=0;spacingTop=3;image;image=img/lib/active_directory/web_server.svg;" parent="WEjBrDBe1VnxncM8H6Ck-12" vertex="1">
          <mxGeometry x="11" y="20" width="48" height="60" as="geometry"/>
        </mxCell>
        <mxCell id="WEjBrDBe1VnxncM8H6Ck-9" value="Java-Serv" style="text;html=1;align=center;verticalAlign=middle;resizable=0;points=[];;autosize=1;" parent="WEjBrDBe1VnxncM8H6Ck-12" vertex="1">
          <mxGeometry width="70" height="20" as="geometry"/>
        </mxCell>
        <mxCell id="WEjBrDBe1VnxncM8H6Ck-85" style="edgeStyle=orthogonalEdgeStyle;rounded=0;orthogonalLoop=1;jettySize=auto;html=1;endArrow=classic;endFill=1;strokeColor=#FF0000;strokeWidth=2;startArrow=classic;startFill=1;" parent="1" source="WEjBrDBe1VnxncM8H6Ck-15" target="WEjBrDBe1VnxncM8H6Ck-4" edge="1">
          <mxGeometry relative="1" as="geometry">
            <Array as="points">
              <mxPoint x="333" y="211"/>
              <mxPoint x="333" y="226"/>
            </Array>
          </mxGeometry>
        </mxCell>
        <mxCell id="WEjBrDBe1VnxncM8H6Ck-95" value="摇奖" style="text;html=1;align=center;verticalAlign=middle;resizable=0;points=[];;labelBackgroundColor=#ffffff;" parent="WEjBrDBe1VnxncM8H6Ck-85" vertex="1" connectable="0">
          <mxGeometry x="-0.3854" y="-1" relative="1" as="geometry">
            <mxPoint x="-3.57" as="offset"/>
          </mxGeometry>
        </mxCell>
        <mxCell id="WEjBrDBe1VnxncM8H6Ck-15" value="" style="pointerEvents=1;shadow=0;dashed=0;html=1;strokeColor=none;fillColor=#505050;labelPosition=center;verticalLabelPosition=bottom;verticalAlign=top;outlineConnect=0;align=center;shape=mxgraph.office.devices.cell_phone_iphone_standalone;" parent="1" vertex="1">
          <mxGeometry x="247.5" y="190" width="25" height="42" as="geometry"/>
        </mxCell>
        <mxCell id="WEjBrDBe1VnxncM8H6Ck-86" style="edgeStyle=orthogonalEdgeStyle;rounded=0;orthogonalLoop=1;jettySize=auto;html=1;entryX=0;entryY=0.5;entryDx=0;entryDy=0;endArrow=classic;endFill=1;strokeColor=#d6b656;strokeWidth=2;startArrow=classic;startFill=1;fillColor=#fff2cc;" parent="1" source="WEjBrDBe1VnxncM8H6Ck-16" target="WEjBrDBe1VnxncM8H6Ck-4" edge="1">
          <mxGeometry relative="1" as="geometry"/>
        </mxCell>
        <mxCell id="WEjBrDBe1VnxncM8H6Ck-96" value="等待" style="text;html=1;align=center;verticalAlign=middle;resizable=0;points=[];;labelBackgroundColor=#ffffff;" parent="WEjBrDBe1VnxncM8H6Ck-86" vertex="1" connectable="0">
          <mxGeometry x="-0.57" y="1" relative="1" as="geometry">
            <mxPoint as="offset"/>
          </mxGeometry>
        </mxCell>
        <mxCell id="WEjBrDBe1VnxncM8H6Ck-16" value="" style="pointerEvents=1;shadow=0;dashed=0;html=1;strokeColor=none;fillColor=#505050;labelPosition=center;verticalLabelPosition=bottom;verticalAlign=top;outlineConnect=0;align=center;shape=mxgraph.office.devices.cell_phone_iphone_standalone;" parent="1" vertex="1">
          <mxGeometry x="247.5" y="249" width="25" height="42" as="geometry"/>
        </mxCell>
        <mxCell id="WEjBrDBe1VnxncM8H6Ck-87" style="edgeStyle=orthogonalEdgeStyle;rounded=0;orthogonalLoop=1;jettySize=auto;html=1;entryX=0;entryY=0.5;entryDx=0;entryDy=0;endArrow=classic;endFill=1;strokeColor=#d6b656;strokeWidth=2;startArrow=classic;startFill=1;fillColor=#fff2cc;" parent="1" source="WEjBrDBe1VnxncM8H6Ck-18" target="WEjBrDBe1VnxncM8H6Ck-4" edge="1">
          <mxGeometry relative="1" as="geometry"/>
        </mxCell>
        <mxCell id="WEjBrDBe1VnxncM8H6Ck-97" value="等待" style="text;html=1;align=center;verticalAlign=middle;resizable=0;points=[];;labelBackgroundColor=#ffffff;" parent="WEjBrDBe1VnxncM8H6Ck-87" vertex="1" connectable="0">
          <mxGeometry x="-0.6679" y="1" relative="1" as="geometry">
            <mxPoint as="offset"/>
          </mxGeometry>
        </mxCell>
        <mxCell id="WEjBrDBe1VnxncM8H6Ck-18" value="" style="pointerEvents=1;shadow=0;dashed=0;html=1;strokeColor=none;fillColor=#505050;labelPosition=center;verticalLabelPosition=bottom;verticalAlign=top;outlineConnect=0;align=center;shape=mxgraph.office.devices.cell_phone_iphone_standalone;" parent="1" vertex="1">
          <mxGeometry x="247.5" y="308" width="25" height="42" as="geometry"/>
        </mxCell>
        <mxCell id="WEjBrDBe1VnxncM8H6Ck-21" value="" style="shape=image;html=1;verticalAlign=top;verticalLabelPosition=bottom;labelBackgroundColor=#ffffff;imageAspect=0;aspect=fixed;image=https://cdn2.iconfinder.com/data/icons/thesquid-ink-40-free-flat-icon-pack/64/support-128.png" parent="1" vertex="1">
          <mxGeometry x="393.19" y="31" width="42" height="42" as="geometry"/>
        </mxCell>
        <mxCell id="WEjBrDBe1VnxncM8H6Ck-93" style="edgeStyle=orthogonalEdgeStyle;rounded=0;orthogonalLoop=1;jettySize=auto;html=1;endArrow=classic;endFill=1;strokeColor=#FF0000;strokeWidth=2;startArrow=classic;startFill=1;" parent="1" source="WEjBrDBe1VnxncM8H6Ck-23" target="WEjBrDBe1VnxncM8H6Ck-4" edge="1">
          <mxGeometry relative="1" as="geometry"/>
        </mxCell>
        <mxCell id="WEjBrDBe1VnxncM8H6Ck-119" value="有人扫码&lt;br&gt;回写新码" style="text;html=1;align=center;verticalAlign=middle;resizable=0;points=[];;labelBackgroundColor=#ffffff;fontSize=9;" parent="WEjBrDBe1VnxncM8H6Ck-93" vertex="1" connectable="0">
          <mxGeometry x="-0.1758" y="1" relative="1" as="geometry">
            <mxPoint as="offset"/>
          </mxGeometry>
        </mxCell>
        <mxCell id="WEjBrDBe1VnxncM8H6Ck-23" value="" style="shape=image;html=1;verticalAlign=top;verticalLabelPosition=bottom;labelBackgroundColor=#ffffff;imageAspect=0;aspect=fixed;image=https://cdn1.iconfinder.com/data/icons/100-basic-for-user-interface/32/68-qr_code-128.png" parent="1" vertex="1">
          <mxGeometry x="394" y="94" width="40.38" height="40.38" as="geometry"/>
        </mxCell>
        <mxCell id="WEjBrDBe1VnxncM8H6Ck-26" value="" style="outlineConnect=0;fontColor=#232F3E;gradientColor=none;fillColor=#232F3E;strokeColor=none;dashed=0;verticalLabelPosition=bottom;verticalAlign=top;align=center;html=1;fontSize=12;fontStyle=0;aspect=fixed;pointerEvents=1;shape=mxgraph.aws4.user;" parent="1" vertex="1">
          <mxGeometry x="607.5" y="17" width="30" height="30" as="geometry"/>
        </mxCell>
        <mxCell id="WEjBrDBe1VnxncM8H6Ck-27" value="" style="outlineConnect=0;fontColor=#232F3E;gradientColor=none;fillColor=#232F3E;strokeColor=none;dashed=0;verticalLabelPosition=bottom;verticalAlign=top;align=center;html=1;fontSize=12;fontStyle=0;aspect=fixed;pointerEvents=1;shape=mxgraph.aws4.user;" parent="1" vertex="1">
          <mxGeometry x="547.5" y="17" width="30" height="30" as="geometry"/>
        </mxCell>
        <mxCell id="WEjBrDBe1VnxncM8H6Ck-28" value="" style="outlineConnect=0;fontColor=#232F3E;gradientColor=none;fillColor=#232F3E;strokeColor=none;dashed=0;verticalLabelPosition=bottom;verticalAlign=top;align=center;html=1;fontSize=12;fontStyle=0;aspect=fixed;pointerEvents=1;shape=mxgraph.aws4.user;" parent="1" vertex="1">
          <mxGeometry x="487.5" y="17" width="30" height="30" as="geometry"/>
        </mxCell>
        <mxCell id="WEjBrDBe1VnxncM8H6Ck-88" style="edgeStyle=orthogonalEdgeStyle;rounded=0;orthogonalLoop=1;jettySize=auto;html=1;endArrow=classic;endFill=1;strokeColor=#d6b656;strokeWidth=2;startArrow=classic;startFill=1;fillColor=#fff2cc;" parent="1" source="WEjBrDBe1VnxncM8H6Ck-29" target="WEjBrDBe1VnxncM8H6Ck-4" edge="1">
          <mxGeometry relative="1" as="geometry"/>
        </mxCell>
        <mxCell id="WEjBrDBe1VnxncM8H6Ck-100" value="&lt;font style=&quot;font-size: 7px&quot;&gt;等待&lt;br&gt;&lt;/font&gt;" style="text;html=1;align=center;verticalAlign=middle;resizable=0;points=[];;labelBackgroundColor=#ffffff;" parent="WEjBrDBe1VnxncM8H6Ck-88" vertex="1" connectable="0">
          <mxGeometry x="-0.4443" y="-3" relative="1" as="geometry">
            <mxPoint x="7.72" y="1.86" as="offset"/>
          </mxGeometry>
        </mxCell>
        <mxCell id="WEjBrDBe1VnxncM8H6Ck-29" value="" style="pointerEvents=1;shadow=0;dashed=0;html=1;strokeColor=none;fillColor=#505050;labelPosition=center;verticalLabelPosition=bottom;verticalAlign=top;outlineConnect=0;align=center;shape=mxgraph.office.devices.cell_phone_iphone_standalone;" parent="1" vertex="1">
          <mxGeometry x="595" y="186" width="25" height="42" as="geometry"/>
        </mxCell>
        <mxCell id="WEjBrDBe1VnxncM8H6Ck-89" style="edgeStyle=orthogonalEdgeStyle;rounded=0;orthogonalLoop=1;jettySize=auto;html=1;endArrow=classic;endFill=1;strokeColor=#d6b656;strokeWidth=2;startArrow=classic;startFill=1;fillColor=#fff2cc;" parent="1" source="WEjBrDBe1VnxncM8H6Ck-30" target="WEjBrDBe1VnxncM8H6Ck-4" edge="1">
          <mxGeometry relative="1" as="geometry"/>
        </mxCell>
        <mxCell id="WEjBrDBe1VnxncM8H6Ck-98" value="等待" style="text;html=1;align=center;verticalAlign=middle;resizable=0;points=[];;labelBackgroundColor=#ffffff;" parent="WEjBrDBe1VnxncM8H6Ck-89" vertex="1" connectable="0">
          <mxGeometry x="-0.5498" y="1" relative="1" as="geometry">
            <mxPoint as="offset"/>
          </mxGeometry>
        </mxCell>
        <mxCell id="WEjBrDBe1VnxncM8H6Ck-30" value="" style="pointerEvents=1;shadow=0;dashed=0;html=1;strokeColor=none;fillColor=#505050;labelPosition=center;verticalLabelPosition=bottom;verticalAlign=top;outlineConnect=0;align=center;shape=mxgraph.office.devices.cell_phone_iphone_standalone;" parent="1" vertex="1">
          <mxGeometry x="595" y="244" width="25" height="42" as="geometry"/>
        </mxCell>
        <mxCell id="WEjBrDBe1VnxncM8H6Ck-91" style="edgeStyle=orthogonalEdgeStyle;rounded=0;orthogonalLoop=1;jettySize=auto;html=1;entryX=1;entryY=0.5;entryDx=0;entryDy=0;endArrow=classic;endFill=1;strokeColor=#d6b656;strokeWidth=2;startArrow=classic;startFill=1;fillColor=#fff2cc;" parent="1" source="WEjBrDBe1VnxncM8H6Ck-32" target="WEjBrDBe1VnxncM8H6Ck-4" edge="1">
          <mxGeometry relative="1" as="geometry"/>
        </mxCell>
        <mxCell id="WEjBrDBe1VnxncM8H6Ck-99" value="等待" style="text;html=1;align=center;verticalAlign=middle;resizable=0;points=[];;labelBackgroundColor=#ffffff;" parent="WEjBrDBe1VnxncM8H6Ck-91" vertex="1" connectable="0">
          <mxGeometry x="-0.6162" y="-1" relative="1" as="geometry">
            <mxPoint as="offset"/>
          </mxGeometry>
        </mxCell>
        <mxCell id="WEjBrDBe1VnxncM8H6Ck-32" value="" style="pointerEvents=1;shadow=0;dashed=0;html=1;strokeColor=none;fillColor=#505050;labelPosition=center;verticalLabelPosition=bottom;verticalAlign=top;outlineConnect=0;align=center;shape=mxgraph.office.devices.cell_phone_iphone_standalone;" parent="1" vertex="1">
          <mxGeometry x="595" y="302" width="25" height="42" as="geometry"/>
        </mxCell>
        <mxCell id="WEjBrDBe1VnxncM8H6Ck-33" value="" style="endArrow=classic;html=1;" parent="1" edge="1">
          <mxGeometry width="50" height="50" relative="1" as="geometry">
            <mxPoint x="661.5" y="60" as="sourcePoint"/>
            <mxPoint x="441.5" y="60" as="targetPoint"/>
          </mxGeometry>
        </mxCell>
        <mxCell id="WEjBrDBe1VnxncM8H6Ck-34" value="小票兑奖，扫码增加摇奖机会" style="text;html=1;align=center;verticalAlign=middle;resizable=0;points=[];;labelBackgroundColor=#ffffff;" parent="WEjBrDBe1VnxncM8H6Ck-33" vertex="1" connectable="0">
          <mxGeometry x="0.0485" y="-1" relative="1" as="geometry">
            <mxPoint x="15.24" y="1" as="offset"/>
          </mxGeometry>
        </mxCell>
        <mxCell id="WEjBrDBe1VnxncM8H6Ck-81" value="" style="group" parent="1" vertex="1" connectable="0">
          <mxGeometry x="308" y="349" width="220" height="220" as="geometry"/>
        </mxCell>
        <mxCell id="WEjBrDBe1VnxncM8H6Ck-8" value="" style="shape=image;html=1;verticalAlign=top;verticalLabelPosition=bottom;labelBackgroundColor=#ffffff;imageAspect=0;aspect=fixed;image=https://cdn2.iconfinder.com/data/icons/pittogrammi/142/03-128.png" parent="WEjBrDBe1VnxncM8H6Ck-81" vertex="1">
          <mxGeometry width="220" height="220" as="geometry"/>
        </mxCell>
        <mxCell id="WEjBrDBe1VnxncM8H6Ck-69" value="" style="dashed=0;outlineConnect=0;html=1;align=center;labelPosition=center;verticalLabelPosition=bottom;verticalAlign=top;shape=mxgraph.weblogos.apple_classic" parent="WEjBrDBe1VnxncM8H6Ck-81" vertex="1">
          <mxGeometry x="83.5" y="19" width="20" height="20" as="geometry"/>
        </mxCell>
        <mxCell id="WEjBrDBe1VnxncM8H6Ck-71" value="" style="dashed=0;outlineConnect=0;html=1;align=center;labelPosition=center;verticalLabelPosition=bottom;verticalAlign=top;shape=mxgraph.weblogos.amazon" parent="WEjBrDBe1VnxncM8H6Ck-81" vertex="1">
          <mxGeometry x="175" y="18.9999999999998" width="20" height="20" as="geometry"/>
        </mxCell>
        <mxCell id="WEjBrDBe1VnxncM8H6Ck-72" value="" style="dashed=0;outlineConnect=0;html=1;align=center;labelPosition=center;verticalLabelPosition=bottom;verticalAlign=top;shape=mxgraph.weblogos.chrome" parent="WEjBrDBe1VnxncM8H6Ck-81" vertex="1">
          <mxGeometry x="32" y="53" width="20" height="20" as="geometry"/>
        </mxCell>
        <mxCell id="WEjBrDBe1VnxncM8H6Ck-74" value="" style="dashed=0;outlineConnect=0;html=1;align=center;labelPosition=center;verticalLabelPosition=bottom;verticalAlign=top;shape=mxgraph.weblogos.bookmarks.fr" parent="WEjBrDBe1VnxncM8H6Ck-81" vertex="1">
          <mxGeometry x="133" y="19" width="20" height="20" as="geometry"/>
        </mxCell>
        <mxCell id="WEjBrDBe1VnxncM8H6Ck-75" value="" style="dashed=0;outlineConnect=0;html=1;align=center;labelPosition=center;verticalLabelPosition=bottom;verticalAlign=top;shape=mxgraph.weblogos.buzzfeed;fillColor=#ED3223;strokeColor=none" parent="WEjBrDBe1VnxncM8H6Ck-81" vertex="1">
          <mxGeometry x="33" y="19" width="20" height="20" as="geometry"/>
        </mxCell>
        <mxCell id="WEjBrDBe1VnxncM8H6Ck-76" value="" style="dashed=0;outlineConnect=0;html=1;align=center;labelPosition=center;verticalLabelPosition=bottom;verticalAlign=top;shape=mxgraph.weblogos.designfloat;strokeColor=none" parent="WEjBrDBe1VnxncM8H6Ck-81" vertex="1">
          <mxGeometry x="175" y="53.000000000000014" width="20" height="20" as="geometry"/>
        </mxCell>
        <mxCell id="WEjBrDBe1VnxncM8H6Ck-77" value="滚动摇奖，显示大奖" style="text;html=1;align=center;verticalAlign=middle;resizable=0;points=[];;autosize=1;" parent="WEjBrDBe1VnxncM8H6Ck-81" vertex="1">
          <mxGeometry x="49" y="99" width="119" height="19" as="geometry"/>
        </mxCell>
        <mxCell id="-kljzyaK-KWhkCO0UmkW-14" value="" style="dashed=0;outlineConnect=0;html=1;align=center;labelPosition=center;verticalLabelPosition=bottom;verticalAlign=top;shape=mxgraph.weblogos.github" vertex="1" parent="WEjBrDBe1VnxncM8H6Ck-81">
          <mxGeometry x="83.5" y="53" width="20" height="20" as="geometry"/>
        </mxCell>
        <mxCell id="-kljzyaK-KWhkCO0UmkW-16" value="" style="dashed=0;outlineConnect=0;html=1;align=center;labelPosition=center;verticalLabelPosition=bottom;verticalAlign=top;shape=mxgraph.weblogos.feedburner" vertex="1" parent="WEjBrDBe1VnxncM8H6Ck-81">
          <mxGeometry x="133" y="53" width="20" height="20" as="geometry"/>
        </mxCell>
        <mxCell id="WEjBrDBe1VnxncM8H6Ck-83" value="" style="group" parent="1" vertex="1" connectable="0">
          <mxGeometry x="387.5" y="206" width="77" height="70" as="geometry"/>
        </mxCell>
        <mxCell id="WEjBrDBe1VnxncM8H6Ck-4" value="" style="aspect=fixed;perimeter=ellipsePerimeter;html=1;align=center;shadow=0;dashed=0;spacingTop=3;image;image=img/lib/active_directory/sql_server.svg;" parent="WEjBrDBe1VnxncM8H6Ck-83" vertex="1">
          <mxGeometry x="6.288333333333304" width="40.45987920621225" height="52.545297670405525" as="geometry"/>
        </mxCell>
        <mxCell id="WEjBrDBe1VnxncM8H6Ck-10" value="GraphQL" style="text;html=1;align=center;verticalAlign=middle;resizable=0;points=[];;autosize=1;" parent="WEjBrDBe1VnxncM8H6Ck-83" vertex="1">
          <mxGeometry y="51.578947368421055" width="60" height="20" as="geometry"/>
        </mxCell>
        <mxCell id="WEjBrDBe1VnxncM8H6Ck-92" style="edgeStyle=orthogonalEdgeStyle;rounded=0;orthogonalLoop=1;jettySize=auto;html=1;endArrow=classic;endFill=1;strokeColor=#FF0000;strokeWidth=2;startArrow=classic;startFill=1;" parent="1" source="WEjBrDBe1VnxncM8H6Ck-10" target="WEjBrDBe1VnxncM8H6Ck-8" edge="1">
          <mxGeometry relative="1" as="geometry"/>
        </mxCell>
        <mxCell id="WEjBrDBe1VnxncM8H6Ck-107" value="控制摇奖机运转" style="text;html=1;align=center;verticalAlign=middle;resizable=0;points=[];;labelBackgroundColor=#ffffff;" parent="WEjBrDBe1VnxncM8H6Ck-92" vertex="1" connectable="0">
          <mxGeometry x="0.0402" y="1" relative="1" as="geometry">
            <mxPoint as="offset"/>
          </mxGeometry>
        </mxCell>
        <mxCell id="WEjBrDBe1VnxncM8H6Ck-102" value="" style="endArrow=classic;html=1;strokeColor=#1A1A1A;strokeWidth=2;exitX=0;exitY=0;exitDx=0;exitDy=0;entryX=1;entryY=1;entryDx=0;entryDy=0;startArrow=classic;startFill=1;" parent="1" source="WEjBrDBe1VnxncM8H6Ck-4" target="WEjBrDBe1VnxncM8H6Ck-3" edge="1">
          <mxGeometry width="50" height="50" relative="1" as="geometry">
            <mxPoint x="180" y="171" as="sourcePoint"/>
            <mxPoint x="230" y="121" as="targetPoint"/>
          </mxGeometry>
        </mxCell>
        <mxCell id="WEjBrDBe1VnxncM8H6Ck-109" value="查询摇奖机会&lt;br&gt;保存选择卡券" style="text;html=1;align=center;verticalAlign=middle;resizable=0;points=[];;labelBackgroundColor=#ffffff;fontSize=9;" parent="WEjBrDBe1VnxncM8H6Ck-102" vertex="1" connectable="0">
          <mxGeometry x="0.1495" y="1" relative="1" as="geometry">
            <mxPoint as="offset"/>
          </mxGeometry>
        </mxCell>
        <mxCell id="WEjBrDBe1VnxncM8H6Ck-110" style="edgeStyle=orthogonalEdgeStyle;rounded=0;orthogonalLoop=1;jettySize=auto;html=1;startArrow=none;startFill=0;endArrow=classic;endFill=1;strokeColor=#1A1A1A;strokeWidth=1;fontSize=9;" parent="1" source="WEjBrDBe1VnxncM8H6Ck-8" target="WEjBrDBe1VnxncM8H6Ck-15" edge="1">
          <mxGeometry relative="1" as="geometry">
            <Array as="points">
              <mxPoint x="199" y="459"/>
              <mxPoint x="199" y="211"/>
            </Array>
          </mxGeometry>
        </mxCell>
        <mxCell id="WEjBrDBe1VnxncM8H6Ck-111" style="edgeStyle=orthogonalEdgeStyle;rounded=0;orthogonalLoop=1;jettySize=auto;html=1;startArrow=none;startFill=0;endArrow=classic;endFill=1;strokeColor=#1A1A1A;strokeWidth=1;fontSize=9;" parent="1" source="WEjBrDBe1VnxncM8H6Ck-8" target="WEjBrDBe1VnxncM8H6Ck-16" edge="1">
          <mxGeometry relative="1" as="geometry">
            <Array as="points">
              <mxPoint x="199" y="459"/>
              <mxPoint x="199" y="270"/>
            </Array>
          </mxGeometry>
        </mxCell>
        <mxCell id="WEjBrDBe1VnxncM8H6Ck-112" style="edgeStyle=orthogonalEdgeStyle;rounded=0;orthogonalLoop=1;jettySize=auto;html=1;startArrow=none;startFill=0;endArrow=classic;endFill=1;strokeColor=#1A1A1A;strokeWidth=1;fontSize=9;" parent="1" source="WEjBrDBe1VnxncM8H6Ck-8" target="WEjBrDBe1VnxncM8H6Ck-18" edge="1">
          <mxGeometry relative="1" as="geometry">
            <Array as="points">
              <mxPoint x="199" y="459"/>
              <mxPoint x="199" y="329"/>
            </Array>
          </mxGeometry>
        </mxCell>
        <mxCell id="WEjBrDBe1VnxncM8H6Ck-117" value="广播大奖结果&lt;br&gt;通知开始下次摇奖" style="text;html=1;align=center;verticalAlign=middle;resizable=0;points=[];;labelBackgroundColor=#ffffff;fontSize=9;" parent="WEjBrDBe1VnxncM8H6Ck-112" vertex="1" connectable="0">
          <mxGeometry x="-0.6249" y="-2" relative="1" as="geometry">
            <mxPoint as="offset"/>
          </mxGeometry>
        </mxCell>
        <mxCell id="WEjBrDBe1VnxncM8H6Ck-113" style="edgeStyle=orthogonalEdgeStyle;rounded=0;orthogonalLoop=1;jettySize=auto;html=1;exitX=1;exitY=0.5;exitDx=0;exitDy=0;startArrow=none;startFill=0;endArrow=none;endFill=0;strokeColor=#1A1A1A;strokeWidth=1;fontSize=9;" parent="1" source="WEjBrDBe1VnxncM8H6Ck-8" target="WEjBrDBe1VnxncM8H6Ck-29" edge="1">
          <mxGeometry relative="1" as="geometry">
            <Array as="points">
              <mxPoint x="645" y="459"/>
              <mxPoint x="645" y="207"/>
            </Array>
          </mxGeometry>
        </mxCell>
        <mxCell id="WEjBrDBe1VnxncM8H6Ck-114" style="edgeStyle=orthogonalEdgeStyle;rounded=0;orthogonalLoop=1;jettySize=auto;html=1;startArrow=none;startFill=0;endArrow=none;endFill=0;strokeColor=#1A1A1A;strokeWidth=1;fontSize=9;" parent="1" source="WEjBrDBe1VnxncM8H6Ck-8" target="WEjBrDBe1VnxncM8H6Ck-30" edge="1">
          <mxGeometry relative="1" as="geometry">
            <Array as="points">
              <mxPoint x="645" y="459"/>
              <mxPoint x="645" y="265"/>
            </Array>
          </mxGeometry>
        </mxCell>
        <mxCell id="WEjBrDBe1VnxncM8H6Ck-115" style="edgeStyle=orthogonalEdgeStyle;rounded=0;orthogonalLoop=1;jettySize=auto;html=1;startArrow=none;startFill=0;endArrow=none;endFill=0;strokeColor=#1A1A1A;strokeWidth=1;fontSize=9;" parent="1" source="WEjBrDBe1VnxncM8H6Ck-8" target="WEjBrDBe1VnxncM8H6Ck-32" edge="1">
          <mxGeometry relative="1" as="geometry">
            <Array as="points">
              <mxPoint x="645" y="459"/>
              <mxPoint x="645" y="323"/>
            </Array>
          </mxGeometry>
        </mxCell>
        <mxCell id="WEjBrDBe1VnxncM8H6Ck-116" value="广播大奖结果&lt;br&gt;通知开始下次摇奖" style="text;html=1;align=center;verticalAlign=middle;resizable=0;points=[];;labelBackgroundColor=#ffffff;fontSize=9;" parent="WEjBrDBe1VnxncM8H6Ck-115" vertex="1" connectable="0">
          <mxGeometry x="-0.5636" y="1" relative="1" as="geometry">
            <mxPoint as="offset"/>
          </mxGeometry>
        </mxCell>
        <mxCell id="WEjBrDBe1VnxncM8H6Ck-118" value="" style="endArrow=classic;html=1;strokeColor=#1A1A1A;strokeWidth=1;fontSize=9;exitX=0.5;exitY=1;exitDx=0;exitDy=0;entryX=0.5;entryY=0;entryDx=0;entryDy=0;" parent="1" source="WEjBrDBe1VnxncM8H6Ck-21" target="WEjBrDBe1VnxncM8H6Ck-23" edge="1">
          <mxGeometry width="50" height="50" relative="1" as="geometry">
            <mxPoint x="121" y="120" as="sourcePoint"/>
            <mxPoint x="171" y="70" as="targetPoint"/>
          </mxGeometry>
        </mxCell>
        <mxCell id="-kljzyaK-KWhkCO0UmkW-1" value="" style="shape=image;html=1;verticalAlign=top;verticalLabelPosition=bottom;labelBackgroundColor=#ffffff;imageAspect=0;aspect=fixed;image=https://cdn3.iconfinder.com/data/icons/tango-icon-library/48/view-refresh-128.png;imageBackground=#FFFFFF;" vertex="1" parent="1">
          <mxGeometry x="404.14" y="106" width="18" height="18" as="geometry"/>
        </mxCell>
        <mxCell id="-kljzyaK-KWhkCO0UmkW-8" value="" style="shape=image;html=1;verticalAlign=top;verticalLabelPosition=bottom;labelBackgroundColor=#ffffff;imageAspect=0;aspect=fixed;image=https://cdn3.iconfinder.com/data/icons/tango-icon-library/48/view-refresh-128.png;imageBackground=#FFFFFF;" vertex="1" parent="1">
          <mxGeometry x="465" y="224" width="18" height="18" as="geometry"/>
        </mxCell>
        <mxCell id="-kljzyaK-KWhkCO0UmkW-13" value="" style="shape=image;html=1;verticalAlign=top;verticalLabelPosition=bottom;labelBackgroundColor=#ffffff;imageAspect=0;aspect=fixed;image=https://cdn3.iconfinder.com/data/icons/tango-icon-library/48/view-refresh-128.png;imageBackground=#FFFFFF;" vertex="1" parent="1">
          <mxGeometry x="352" y="221" width="18" height="18" as="geometry"/>
        </mxCell>
      </root>
    </mxGraphModel>
  </diagram>
</mxfile>
